normalP08_grf.mot
version=1
nRows=20
nColumns=19
inDegrees=yes
endheader
time	1_ground_force_vx	1_ground_force_vy	1_ground_force_vz	1_ground_force_px	1_ground_force_py	1_ground_force_pz	1_ground_torque_x	1_ground_torque_y	1_ground_torque_z	2_ground_force_vx	2_ground_force_vy	2_ground_force_vz	2_ground_force_px	2_ground_force_py	2_ground_force_pz	2_ground_torque_x	2_ground_torque_y	2_ground_torque_z
            1.980000	          119.613268	          567.580771	            2.152378	            0.302192	            0.002924	           -0.273252	           -0.642351	           -3.048041	           -0.011559	          -45.863746	          337.364355	           17.502849	            0.762583	            0.001291	           -0.186244	            0.078324	           -0.576138	           -0.029891
            1.981000	          119.655099	          562.317997	            1.567393	            0.302430	            0.002923	           -0.273233	           -0.639884	           -3.007129	           -0.008382	          -44.811314	          340.475597	           17.883636	            0.762993	            0.001288	           -0.185763	            0.090766	           -0.689640	           -0.036224
            1.982000	          119.615976	          555.782314	            1.016308	            0.302083	            0.002924	           -0.273208	           -0.637895	           -2.963907	           -0.005420	          -44.000861	          344.709663	           17.560600	            0.764334	            0.001284	           -0.185898	            0.101657	           -0.796397	           -0.040571
            1.983000	          119.542069	          550.282117	            0.445854	            0.302062	            0.002923	           -0.273104	           -0.633691	           -2.917041	           -0.002363	          -43.421752	          348.545791	           16.775176	            0.765165	            0.001281	           -0.185567	            0.097253	           -0.780649	           -0.037572
            1.984000	          119.474966	          544.541184	           -0.125429	            0.302309	            0.002922	           -0.272979	           -0.629991	           -2.871362	            0.000661	          -43.023767	          353.260685	           16.615154	            0.765586	            0.001279	           -0.185391	            0.114522	           -0.940320	           -0.044227
            1.985000	          119.690783	          538.722952	           -0.773659	            0.302214	            0.002922	           -0.272893	           -0.631270	           -2.841317	            0.004080	          -43.063460	          357.818565	           15.601259	            0.766488	            0.001274	           -0.184962	            0.113258	           -0.941072	           -0.041032
            1.986000	          119.751080	          532.185914	           -1.424322	            0.302081	            0.002922	           -0.272745	           -0.633345	           -2.814649	            0.007533	          -43.560918	          363.098456	           14.459002	            0.766784	            0.001271	           -0.184431	            0.116985	           -0.975121	           -0.038830
            1.987000	          119.797508	          526.126686	           -2.004463	            0.302023	            0.002922	           -0.272749	           -0.627794	           -2.757145	            0.010504	          -44.478115	          369.018804	           13.218814	            0.767538	            0.001267	           -0.183933	            0.122835	           -1.019119	           -0.036506
            1.988000	          119.683361	          520.068338	           -2.653496	            0.302360	            0.002920	           -0.272390	           -0.634667	           -2.757863	            0.014071	          -45.967171	          375.980024	           11.790388	            0.769140	            0.001261	           -0.183687	            0.127098	           -1.039578	           -0.032600
            1.989000	          119.499842	          513.850612	           -3.218799	            0.302224	            0.002920	           -0.272336	           -0.631091	           -2.713696	            0.016999	          -47.959199	          381.423706	           10.378714	            0.769767	            0.001256	           -0.182865	            0.134572	           -1.070263	           -0.029122
            1.990000	          119.325702	          508.110833	           -3.836022	            0.302326	            0.002919	           -0.272135	           -0.631695	           -2.689873	            0.020307	          -50.033426	          387.589935	            8.831553	            0.770894	            0.001254	           -0.183100	            0.143226	           -1.109518	           -0.025281
            1.991000	          118.956748	          501.336309	           -4.510345	            0.302312	            0.002919	           -0.272132	           -0.626941	           -2.642206	            0.023771	          -52.289350	          391.996193	            7.400566	            0.771812	            0.001250	           -0.182769	            0.151407	           -1.135046	           -0.021429
            1.992000	          118.596336	          494.799396	           -5.061352	            0.302506	            0.002918	           -0.271961	           -0.627954	           -2.619904	            0.026799	          -54.530972	          396.081950	            6.230341	            0.772602	            0.001246	           -0.182487	            0.154824	           -1.124551	           -0.017689
            1.993000	          118.184279	          488.821729	           -5.595074	            0.302576	            0.002917	           -0.271852	           -0.624046	           -2.581117	            0.029544	          -56.718928	          400.166627	            5.175397	            0.773792	            0.001242	           -0.182289	            0.160294	           -1.130914	           -0.014626
            1.994000	          117.839571	          482.445560	           -6.160741	            0.302522	            0.002918	           -0.271845	           -0.611823	           -2.504855	            0.031987	          -58.801996	          403.451341	            4.371753	            0.774496	            0.001239	           -0.182054	            0.161188	           -1.105938	           -0.011984
            1.995000	          117.625468	          476.148392	           -6.741547	            0.302161	            0.002919	           -0.271887	           -0.607124	           -2.457641	            0.034797	          -60.795164	          406.014927	            3.765378	            0.775419	            0.001235	           -0.181732	            0.165975	           -1.108450	           -0.010280
            1.996000	          117.415584	          468.894941	           -7.409813	            0.302233	            0.002918	           -0.271629	           -0.607837	           -2.427376	            0.038359	          -62.672902	          408.739313	            3.183130	            0.776076	            0.001232	           -0.181699	            0.165998	           -1.082603	           -0.008431
            1.997000	          117.114897	          461.959950	           -7.946906	            0.302129	            0.002917	           -0.271420	           -0.608353	           -2.399648	            0.041280	          -64.537542	          410.743836	            2.528620	            0.776954	            0.001229	           -0.181587	            0.165985	           -1.056400	           -0.006503
            1.998000	          116.552534	          454.546304	           -8.386030	            0.302300	            0.002918	           -0.271643	           -0.596593	           -2.326668	            0.042925	          -66.225135	          412.988529	            1.729009	            0.777344	            0.001227	           -0.181325	            0.160954	           -1.003732	           -0.004202
            1.999000	          116.163553	          448.567836	           -8.927324	            0.302649	            0.002915	           -0.271168	           -0.602175	           -2.325309	            0.046278	          -67.822164	          414.753163	            0.827566	            0.778182	            0.001224	           -0.181143	            0.157329	           -0.962114	           -0.001920
